# xmcd
#
# Track frame offsets:
#	150
#	25920
#	48187
#	67080
#	85592
#	109550
#	131045
#	149832
#	168597
#	194465
#
# Disc length: 2911 seconds
#
# Revision: 1
# Processed by: cddbd v1.5.1PL0 Copyright (c) Steve Scherf et al.
# Submitted via: CDex 1.50Beta5
#
DISCID=8f0b5d0a
DTITLE=平井菜水 - てのひらの短編集
DYEAR=1993
DGENRE=
TTITLE0=お願いだから
TTITLE1=耳をすまして
TTITLE2=誕生物語
TTITLE3=信じてる
TTITLE4=戻る心
TTITLE5=あなたをわかりたい
TTITLE6=そんな雨が降る
TTITLE7=てのひらの短編集
TTITLE8=逢いたいけれど
TTITLE9=たゆまない夜に
EXTD=
EXTT0=
EXTT1=
EXTT2=
EXTT3=
EXTT4=
EXTT5=
EXTT6=
EXTT7=
EXTT8=
EXTT9=
PLAYORDER=
